<svg xmlns="http://www.w3.org/2000/svg" version="1.1" xmlns:xlink="http://www.w3.org/1999/xlink" xmlns:svgjs="http://svgjs.com/svgjs" width="1440" height="560" preserveAspectRatio="none" viewBox="0 0 1440 560"><g mask="url(&quot;#SvgjsMask1002&quot;)" fill="none"><rect width="1440" height="560" x="0" y="0" fill="url(#SvgjsLinearGradient1003)"></rect><path d="M1440 0L1176.33 0L1440 249.93z" fill="rgba(255, 255, 255, .1)"></path><path d="M1176.33 0L1440 249.93L1440 409.51L994.2199999999999 0z" fill="rgba(255, 255, 255, .075)"></path><path d="M994.22 0L1440 409.51L1440 474.15999999999997L865.8000000000001 0z" fill="rgba(255, 255, 255, .05)"></path><path d="M865.8 0L1440 474.15999999999997L1440 518L810.0899999999999 0z" fill="rgba(255, 255, 255, .025)"></path><path d="M0 560L99.04 560L0 326.40999999999997z" fill="rgba(0, 0, 0, .1)"></path><path d="M0 326.40999999999997L99.04 560L698.4699999999999 560L0 266.84999999999997z" fill="rgba(0, 0, 0, .075)"></path><path d="M0 266.85L698.4699999999999 560L731.6099999999999 560L0 233.63000000000002z" fill="rgba(0, 0, 0, .05)"></path><path d="M0 233.63L731.6099999999999 560L1024.84 560L0 177.43z" fill="rgba(0, 0, 0, .025)"></path></g><defs><mask id="SvgjsMask1002"><rect width="1440" height="560" fill="#ffffff"></rect></mask><linearGradient x1="15.28%" y1="-39.29%" x2="84.72%" y2="139.29%" gradientUnits="userSpaceOnUse" id="SvgjsLinearGradient1003"><stop stop-color="#0e2a47" offset="0"></stop><stop stop-color="#00459e" offset="1"></stop></linearGradient></defs></svg>